# xmcd
#
# Track frame offsets: 
#        150
#        14667
#        28627
#        43052
#        57330
#        71582
#        85667
#        99575
#        113027
#        126070
#        139327
#        150855
#        164725
#        177287
#        191570
#        205552
#        219857
#        232280
#        245737
#        257770
#        270750
#        285927
#
# Disc length: 4005 seconds
#
# Revision: 2
# Processed by: cddbd v1.5.2PL0 Copyright (c) Steve Scherf et al.
# Submitted via: ExactAudioCopy v1.0b1
#
DISCID=340fa316
DTITLE=Tampa Red - The Bluebird Recordings 1936-1938 [CD2]
DYEAR=1997
DGENRE=Blues
TTITLE0=My Gal Is Gone (mono)
TTITLE1=When The One You Love Is Gone (mono)
TTITLE2=You're More Than A Palace To Me (mono)
TTITLE3=Harlem Swing (mono)
TTITLE4=Oh Babe Oh Baby (mono)
TTITLE5=I´m Gonna Get High (mono)
TTITLE6=Delta Woman Blues (mono)
TTITLE7=Deceitful Friend Blues (mono)
TTITLE8=Wrong Idea (mono)
TTITLE9=Whoopee Mama (mono)
TTITLE10=Travel On (mono)
TTITLE11=Seminole Blues (mono)
TTITLE12=The Most Of Us Do (mono)
TTITLE13=We Gonna Get High Together (mono)
TTITLE14=Happily Married (mono)
TTITLE15=A Lie In My Heart (mono)
TTITLE16=Heck Of A How-Do-You-Do (mono)
TTITLE17=That May Get It Now (mono)
TTITLE18=That Don't Matter Now (mono)
TTITLE19=Grouchy Hearted Woman (mono)
TTITLE20=Why Should I Care (mono)
TTITLE21=Got To Leave My Woman (mono)
EXTD=
EXTT0=
EXTT1=
EXTT2=
EXTT3=
EXTT4=
EXTT5=
EXTT6=
EXTT7=
EXTT8=
EXTT9=
EXTT10=
EXTT11=
EXTT12=
EXTT13=
EXTT14=
EXTT15=
EXTT16=
EXTT17=
EXTT18=
EXTT19=
EXTT20=
EXTT21=
PLAYORDER=
